<?xml version="1.0" encoding="UTF-8"?>
<svg xmlns:xodm="http://www.corel.com/coreldraw/odm/2003" xmlns="http://www.w3.org/2000/svg" xmlns:xlink="http://www.w3.org/1999/xlink" version="1.1" id="Layer_1" x="0px" y="0px" viewBox="0 0 2500 626" style="enable-background:new 0 0 2500 626;" xml:space="preserve">
<style type="text/css">
	.st0{fill:#4A4644;}
	.st1{fill:#979491;}
	.st2{fill:#464341;}
	.st3{fill:#433F3E;}
	.st4{fill:#2D2B29;}
</style>
<g id="Layer_x0020_1">
	<g id="_2082171070528">
		<path class="st0" d="M692.7,353c-3.2-37.9-32.4-72.6-72.6-72.6c-40.3,0-68.7,34.7-72.7,72.6H692.7z M709.1,360.2    c-0.1,4.5-3.8,8.1-8.3,8.1H547.4c3.9,37.9,32.4,72.6,72.7,72.6c27.5,0,47.9-10.4,63.2-32.4c1.4-2.4,3.9-3.8,6.7-3.9    c4.1-0.1,7.5,3.1,7.6,7.2v0.4c0,1.4-0.4,2.8-1.2,3.9c-15.5,26.8-46.3,40-76.3,40c-51.6,0-88.6-46.3-88.6-95.5    c0-49.3,36.8-95.5,88.6-95.5C671.9,265.1,708.9,310.9,709.1,360.2L709.1,360.2L709.1,360.2z"></path>
		<path class="st0" d="M895.6,268.8c4.2,0.1,7.5,3.5,7.6,7.6c0.1,4.1-3.1,7.5-7.2,7.6h-41.6v161.7c0,4.2-3.4,7.6-7.6,7.6    c-4.2-0.1-7.5-3.5-7.6-7.6V284.1h-39.6c-4.1,0.1-7.5-3.1-7.6-7.2v-0.4c0-4.2,3.4-7.6,7.6-7.6h39.6v-59c0-4,3-7.5,6.9-8.1    c4.2-0.6,8,2.4,8.5,6.5c0,0.4,0.1,0.7,0,1.1v59.5L895.6,268.8L895.6,268.8z"></path>
		<path class="st0" d="M1146.6,347v97.9c-0.1,4.2-3.5,7.5-7.6,7.6c-4.1,0.1-7.5-3.1-7.6-7.2V347c0-33.1-18.7-65.9-55.5-65.9    c-47.2,0-67.6,41.2-64.8,83.5c0,1.2,0.5,6,0.5,6.7v73.3c0,4-2.9,7.5-6.9,8.1c-4.2,0.6-8-2.4-8.5-6.5c0-0.4-0.1-0.8,0-1.1V123.3    c0-4.2,3.4-7.6,7.6-7.6c4.2,0.1,7.5,3.5,7.6,7.6v181.8c13.2-23.6,36.8-39.6,64.3-39.6C1120.9,265.6,1146.6,305.1,1146.6,347    L1146.6,347z"></path>
		<path class="st0" d="M1405.5,353c-3.2-37.9-32.4-72.6-72.6-72.6c-40.3,0-68.7,34.7-72.6,72.6H1405.5L1405.5,353z M1422.1,360.2    c-0.1,4.5-3.8,8.1-8.3,8.1h-153.4c3.9,37.9,32.4,72.6,72.6,72.6c27.5,0,47.9-10.4,63.2-32.4c1.5-2.4,4-3.8,6.7-3.9    c4.1-0.1,7.5,3.1,7.6,7.2v0.4c0,1.4-0.4,2.8-1.2,3.9c-15.5,26.8-46.3,40-76.3,40c-51.6,0-88.6-46.3-88.6-95.5    c0-49.3,36.8-95.5,88.6-95.5C1384.4,265.1,1421.9,310.9,1422.1,360.2L1422.1,360.2L1422.1,360.2z"></path>
		<path class="st0" d="M1610.7,276c0.3,4.3-2.9,8-7.2,8.3c-45.1,6.7-65.5,43.5-65.5,86.3V444c0,4-2.9,7.5-6.9,8.1    c-4.2,0.6-8-2.4-8.5-6.5c-0.1-0.4-0.1-0.8-0.1-1.1V277.2c0-4,3-7.5,6.9-8.1c4.1-0.6,7.9,2.4,8.5,6.5c0,0.4,0.1,0.7,0,1.1v34    c12.7-21.5,38-41.9,64.3-41.9C1606.3,268.8,1610.7,271.6,1610.7,276L1610.7,276z"></path>
		<path class="st0" d="M1846.4,353c-3.3-37.9-32.4-72.6-72.7-72.6c-40.2,0-68.7,34.7-72.6,72.6H1846.4L1846.4,353z M1862.8,360.2    c-0.1,4.5-3.8,8.1-8.3,8.1h-153.4c3.9,37.9,32.4,72.6,72.6,72.6c27.5,0,47.9-10.4,63.2-32.4c1.4-2.4,3.9-3.8,6.7-3.9    c4.1-0.1,7.5,3.1,7.6,7.2v0.4c0,1.4-0.4,2.8-1.2,3.9c-15.5,26.8-46.3,40-76.3,40c-51.6,0-88.6-46.3-88.6-95.5    c0-49.3,36.8-95.5,88.6-95.5C1825.6,265.1,1862.6,310.9,1862.8,360.2L1862.8,360.2L1862.8,360.2z"></path>
		<path class="st0" d="M2110.8,277.8v168c-0.1,4.2-3.5,7.5-7.6,7.6c-4.1,0.1-7.5-3.1-7.6-7.2v-32.3c-12.7,25.2-35.2,43.5-63.8,43.5    c-45.6,0-70.8-39.5-70.8-81.4v-98.3c0-4.2,3.4-7.6,7.6-7.6c4.2,0.1,7.5,3.5,7.6,7.6v98.3c0,33.1,18.7,65.9,55.5,65.9    c51.6,0,63.8-48.3,63.8-101.8v-62.7c0.1-4.3,3.6-7.7,7.9-7.6c0.9,0,1.7,0.2,2.5,0.5C2108.9,271.6,2110.8,274.6,2110.8,277.8    L2110.8,277.8z"></path>
		<path class="st0" d="M2499.2,346.3v98.3c-0.1,4.2-3.5,7.5-7.6,7.6c-4.1,0.1-7.5-3.1-7.6-7.2v-98.7c0-33.1-18.7-65.5-55.5-65.5    c-46.3,0-63.8,49.5-63.8,87.9v75.9c-0.1,4.2-3.5,7.5-7.6,7.6c-4.1,0.1-7.5-3.1-7.6-7.2v-98.7c0-33.1-18.7-65.5-55.5-65.5    c-46.7,0-65.9,36.8-64.3,85.8c0,1.2,0.5,3.2,0,3.9v73.8c0,4-2.9,7.5-6.9,8.1c-4.2,0.6-8-2.4-8.5-6.5c-0.1-0.4-0.1-0.8-0.1-1.1    V277.2c0-4,3-7.5,6.9-8.1c4.2-0.6,8,2.4,8.5,6.5c0,0.4,0.1,0.7,0,1.1v28c13.2-23.6,36.8-39.1,64.3-39.1    c31.2,0,55.5,19.9,65.5,48.8c12.7-28.7,37.5-48.8,69.2-48.8C2473.6,265.6,2499.2,304.7,2499.2,346.3L2499.2,346.3L2499.2,346.3z"></path>
		<polygon class="st1" points="0.8,318.8 192.8,0 192.8,231.6   "></polygon>
		<polygon class="st2" points="192.8,432.4 0.8,318.8 192.8,231.6   "></polygon>
		<polygon class="st3" points="385,318.8 192.8,231.6 192.8,0   "></polygon>
		<polygon class="st4" points="192.8,432.4 192.8,231.6 385,318.8   "></polygon>
		<polygon class="st1" points="192.8,626 0.8,355.4 192.8,468.7   "></polygon>
		<polygon class="st3" points="192.8,626 192.8,468.7 385,355.4   "></polygon>
	</g>
</g>
</svg>
